<svg width="1600" height="900" viewBox="0 0 1600 900" fill="none" xmlns="http://www.w3.org/2000/svg">
  <defs>
    <linearGradient id="sky" x1="800" y1="0" x2="800" y2="900" gradientUnits="userSpaceOnUse">
      <stop stop-color="#DCEEFF"/>
      <stop offset="1" stop-color="#BFD7F2"/>
    </linearGradient>
    <linearGradient id="wall" x1="800" y1="80" x2="800" y2="660" gradientUnits="userSpaceOnUse">
      <stop stop-color="#EEF5FB"/>
      <stop offset="1" stop-color="#D9E8F4"/>
    </linearGradient>
    <linearGradient id="floor" x1="800" y1="620" x2="800" y2="900" gradientUnits="userSpaceOnUse">
      <stop stop-color="#D5B58C"/>
      <stop offset="1" stop-color="#B88E61"/>
    </linearGradient>
    <linearGradient id="desk" x1="0" y1="0" x2="1" y2="1">
      <stop stop-color="#A36B3E"/>
      <stop offset="1" stop-color="#7B4A26"/>
    </linearGradient>
    <linearGradient id="screen" x1="0" y1="0" x2="1" y2="1">
      <stop stop-color="#1D4ED8"/>
      <stop offset="1" stop-color="#06B6D4"/>
    </linearGradient>
  </defs>

  <rect width="1600" height="900" fill="url(#sky)"/>
  <rect y="80" width="1600" height="560" fill="url(#wall)"/>
  <rect y="640" width="1600" height="260" fill="url(#floor)"/>

  <rect x="0" y="116" width="1600" height="18" fill="#A7C1D9" opacity="0.55"/>
  <rect x="80" y="138" width="620" height="300" rx="24" fill="#F6FBFF" stroke="#B7CBDD" stroke-width="4"/>
  <rect x="900" y="138" width="620" height="300" rx="24" fill="#F6FBFF" stroke="#B7CBDD" stroke-width="4"/>

  <rect x="110" y="170" width="560" height="236" rx="16" fill="#CFE8FF"/>
  <rect x="930" y="170" width="560" height="236" rx="16" fill="#CFE8FF"/>
  <rect x="126" y="186" width="528" height="204" rx="12" fill="#E8F4FF"/>
  <rect x="946" y="186" width="528" height="204" rx="12" fill="#E8F4FF"/>

  <rect x="140" y="298" width="160" height="72" rx="18" fill="#FFFFFF" opacity="0.88"/>
  <rect x="970" y="300" width="160" height="70" rx="18" fill="#FFFFFF" opacity="0.88"/>
  <circle cx="574" cy="272" r="66" fill="#FFC857" opacity="0.9"/>
  <circle cx="1386" cy="262" r="56" fill="#FFD97B" opacity="0.9"/>

  <rect x="180" y="248" width="192" height="112" rx="18" fill="#F5C26B"/>
  <rect x="226" y="216" width="100" height="52" rx="18" fill="#9FD089"/>
  <circle cx="238" cy="274" r="20" fill="#EF4444"/>
  <circle cx="274" cy="292" r="20" fill="#F43F5E"/>
  <circle cx="314" cy="274" r="20" fill="#DC2626"/>
  <circle cx="256" cy="320" r="20" fill="#FB7185"/>
  <circle cx="296" cy="320" r="20" fill="#EF4444"/>

  <rect x="1040" y="250" width="204" height="108" rx="18" fill="#7BBF6A"/>
  <rect x="1260" y="258" width="150" height="102" rx="18" fill="#F5C26B"/>
  <circle cx="1090" cy="304" r="20" fill="#F59E0B"/>
  <circle cx="1136" cy="290" r="20" fill="#F97316"/>
  <circle cx="1182" cy="304" r="20" fill="#F59E0B"/>
  <circle cx="1300" cy="302" r="20" fill="#EF4444"/>
  <circle cx="1342" cy="288" r="20" fill="#F43F5E"/>
  <circle cx="1380" cy="304" r="20" fill="#DC2626"/>

  <rect x="210" y="488" width="1180" height="60" rx="20" fill="#9DB7CB"/>

  <rect x="250" y="420" width="1100" height="260" rx="34" fill="url(#desk)"/>
  <rect x="280" y="452" width="1040" height="190" rx="28" fill="#9B6238" opacity="0.42"/>

  <rect x="560" y="270" width="470" height="250" rx="28" fill="#243447"/>
  <rect x="588" y="296" width="414" height="194" rx="20" fill="#F8FBFF"/>
  <text x="626" y="344" fill="#0F172A" font-family="Arial, sans-serif" font-size="32" font-weight="700">Store Manager Office</text>
  <text x="626" y="384" fill="#475569" font-family="Arial, sans-serif" font-size="22">Check reports, staff notes, and outside signals</text>
  <text x="626" y="414" fill="#475569" font-family="Arial, sans-serif" font-size="22">before making the next stock decision.</text>
  <rect x="626" y="440" width="146" height="16" rx="8" fill="#2563EB" opacity="0.9"/>
  <rect x="782" y="430" width="110" height="26" rx="13" fill="#10B981" opacity="0.85"/>
  <rect x="902" y="412" width="52" height="44" rx="14" fill="#F59E0B" opacity="0.9"/>

  <rect x="430" y="542" width="154" height="84" rx="18" fill="#FFFFFF" opacity="0.96"/>
  <text x="458" y="576" fill="#2563EB" font-family="Arial, sans-serif" font-size="18" font-weight="700">Reports</text>
  <text x="458" y="606" fill="#0F172A" font-family="Arial, sans-serif" font-size="30" font-weight="700">4</text>

  <rect x="608" y="542" width="154" height="84" rx="18" fill="#FFFFFF" opacity="0.96"/>
  <text x="636" y="576" fill="#059669" font-family="Arial, sans-serif" font-size="18" font-weight="700">Colleagues</text>
  <text x="636" y="606" fill="#0F172A" font-family="Arial, sans-serif" font-size="30" font-weight="700">2</text>

  <rect x="786" y="542" width="154" height="84" rx="18" fill="#FFFFFF" opacity="0.96"/>
  <text x="814" y="576" fill="#EA580C" font-family="Arial, sans-serif" font-size="18" font-weight="700">External</text>
  <text x="814" y="606" fill="#0F172A" font-family="Arial, sans-serif" font-size="30" font-weight="700">2</text>

  <rect x="968" y="542" width="216" height="84" rx="18" fill="#DBEAFE"/>
  <text x="996" y="576" fill="#1D4ED8" font-family="Arial, sans-serif" font-size="18" font-weight="700">Goal</text>
  <text x="996" y="606" fill="#0F172A" font-family="Arial, sans-serif" font-size="24" font-weight="700">Find the real signal</text>

  <rect x="126" y="708" width="244" height="104" rx="24" fill="#FFFFFF" opacity="0.74"/>
  <text x="154" y="752" fill="#334155" font-family="Arial, sans-serif" font-size="24" font-weight="700">Cartoon Office Panorama</text>
  <text x="154" y="786" fill="#64748B" font-family="Arial, sans-serif" font-size="18">Supermarket manager workspace</text>

  <rect x="1320" y="684" width="132" height="122" rx="26" fill="#E2E8F0"/>
  <rect x="1352" y="646" width="70" height="70" rx="35" fill="#F8FAFC"/>
  <circle cx="1387" cy="670" r="20" fill="#F1C27D"/>
  <rect x="1362" y="690" width="50" height="70" rx="18" fill="#2563EB"/>
  <rect x="1350" y="722" width="74" height="18" rx="9" fill="#1D4ED8"/>
</svg>
